# xmcd CD database file
#
# Track frame offsets:
#	150
#	24182
#	43310
#
# Disc length: 783 seconds
#
# Revision: 0
# Processed by: cddbd v1.5.1PL0 Copyright (c) Steve Scherf et al.
# Submitted via: CDex 1.60beta1
#
DISCID=1c030d03
DTITLE=一乗寺賢＆ワームモン - デジモンアドベンチャーベストパートナー12
DYEAR=1900
DGENRE=Anime
TTITLE0=ONLY ONE
TTITLE1=君が夢見た未来、ボクが夢見た未来。
TTITLE2=本当の強さ
EXTD=
EXTT0=
EXTT1=
EXTT2=
PLAYORDER=
